ffmpeg started on 2025-05-12 at 17:09:08
Report written to "D:\Convert\FFMetrics\reports\ssim_report-6.txt"
Log level: 32
Command line:
ffmpeg -hide_banner -nostdin -i "G:\\\xc0\xed\xe8\xec\xe5\\\xce\xed\xe3\xee\xe8\xed\xe3\xe8\\!_35_\xcb\xe5\xf2\xee_2024\\DreamCast\\\xce\xef\xe5\xf0\xe0\xf6\xe8\xff - \xd1\xe5\xec\xe5\xe9\xea\xe0 \xa8\xe4\xe7\xe0\xea\xf3\xf0\xe0\\[DC] Yozakura-san Chi no Daisakusen - 06_Telegram_HEVC.mkv" -i "G:\\\xc0\xed\xe8\xec\xe5\\\xce\xed\xe3\xee\xe8\xed\xe3\xe8\\!_35_\xcb\xe5\xf2\xee_2024\\DreamCast\\\xce\xef\xe5\xf0\xe0\xf6\xe8\xff - \xd1\xe5\xec\xe5\xe9\xea\xe0 \xa8\xe4\xe7\xe0\xea\xf3\xf0\xe0\\[DC] Yozakura-san Chi no Daisakusen - 06_Telegram.mp4" -lavfi "[0:v]settb=AVTB,setpts=PTS-STARTPTS,format=pix_fmts=yuv420p10,fps=24000/1001,scale=1920:1080:flags=bicubic[main];[1:v]settb=AVTB,setpts=PTS-STARTPTS,format=pix_fmts=yuv420p,fps=24000/1001,scale=1920:1080:flags=bicubic[ref];[main][ref]ssim=eof_action=endall:stats_file='D\\:/Convert/FFMetrics/logs/ssim_logfile-6.txt'" -f null -
Input #0, matroska,webm, from 'G:\Аниме\Онгоинги\!_35_Лето_2024\DreamCast\Операция - Семейка Ёдзакура\[DC] Yozakura-san Chi no Daisakusen - 06_Telegram_HEVC.mkv':
  Metadata:
    COMPATIBLE_BRANDS: isomiso2avc1mp41
    MAJOR_BRAND     : isom
    MINOR_VERSION   : 512
    ENCODER         : Lavf61.7.100
  Duration: 00:24:21.55, start: -0.021000, bitrate: 1645 kb/s
  Stream #0:0: Video: hevc (Main 10), yuv420p10le(tv, bt709, progressive), 1920x1080 [SAR 1:1 DAR 16:9], 23.98 fps, 23.98 tbr, 1k tbn (default)
      Metadata:
        HANDLER_NAME    : VideoHandler
        VENDOR_ID       : [0][0][0][0]
        ENCODER         : Lavc61.19.100 libx265
        BPS             : 1448068
        DURATION        : 00:24:21.459708333
        NUMBER_OF_FRAMES: 35040
        NUMBER_OF_BYTES : 264536617
        _STATISTICS_WRITING_APP: mkvpropedit v66.0.0 ('Josie') 64-bit
        _STATISTICS_WRITING_DATE_UTC: 2025-05-08 13:25:24
        _STATISTICS_TAGS: BPS DURATION NUMBER_OF_FRAMES NUMBER_OF_BYTES
  Stream #0:1: Audio: aac (LC), 48000 Hz, stereo, fltp (default)
      Metadata:
        HANDLER_NAME    : SoundHandler
        VENDOR_ID       : [0][0][0][0]
        ENCODER         : Lavc61.19.100 aac
        BPS             : 193796
        DURATION        : 00:24:21.546000000
        NUMBER_OF_FRAMES: 68511
        NUMBER_OF_BYTES : 35405333
        _STATISTICS_WRITING_APP: mkvpropedit v66.0.0 ('Josie') 64-bit
        _STATISTICS_WRITING_DATE_UTC: 2025-05-08 13:25:24
        _STATISTICS_TAGS: BPS DURATION NUMBER_OF_FRAMES NUMBER_OF_BYTES
Input #1, mov,mp4,m4a,3gp,3g2,mj2, from 'G:\Аниме\Онгоинги\!_35_Лето_2024\DreamCast\Операция - Семейка Ёдзакура\[DC] Yozakura-san Chi no Daisakusen - 06_Telegram.mp4':
  Metadata:
    major_brand     : isom
    minor_version   : 512
    compatible_brands: isomiso2avc1mp41
    encoder         : Lavf60.16.100
  Duration: 00:24:21.50, start: 0.000000, bitrate: 3904 kb/s
  Stream #1:0[0x1](und): Video: h264 (High) (avc1 / 0x31637661), yuv420p(tv, bt709, progressive), 1920x1080 [SAR 1:1 DAR 16:9], 3756 kb/s, 23.98 fps, 23.98 tbr, 24k tbn (default)
      Metadata:
        handler_name    : VideoHandler
        vendor_id       : [0][0][0][0]
        encoder         : Lavc60.31.102 h264_qsv
  Stream #1:1[0x2](und): Audio: aac (HE-AACv2) (mp4a / 0x6134706D), 48000 Hz, stereo, fltp, 144 kb/s (default)
      Metadata:
        handler_name    : SoundHandler
        vendor_id       : [0][0][0][0]
Stream mapping:
  Stream #0:0 (hevc) -> settb:default
  Stream #1:0 (h264) -> settb:default
  ssim:default -> Stream #0:0 (wrapped_avframe)
  Stream #0:1 -> #0:1 (aac (native) -> pcm_s16le (native))
Output #0, null, to 'pipe:':
  Metadata:
    COMPATIBLE_BRANDS: isomiso2avc1mp41
    MAJOR_BRAND     : isom
    MINOR_VERSION   : 512
    encoder         : Lavf61.7.100
  Stream #0:0: Video: wrapped_avframe, yuv420p10le(tv, bt709, progressive), 1920x1080 [SAR 1:1 DAR 16:9], q=2-31, 200 kb/s, 23.98 fps, 23.98 tbn
      Metadata:
        encoder         : Lavc61.19.100 wrapped_avframe
  Stream #0:1: Audio: pcm_s16le, 48000 Hz, stereo, s16, 1536 kb/s (default)
      Metadata:
        HANDLER_NAME    : SoundHandler
        VENDOR_ID       : [0][0][0][0]
        _STATISTICS_TAGS: BPS DURATION NUMBER_OF_FRAMES NUMBER_OF_BYTES
        BPS             : 193796
        DURATION        : 00:24:21.546000000
        NUMBER_OF_FRAMES: 68511
        NUMBER_OF_BYTES : 35405333
        _STATISTICS_WRITING_APP: mkvpropedit v66.0.0 ('Josie') 64-bit
        _STATISTICS_WRITING_DATE_UTC: 2025-05-08 13:25:24
        encoder         : Lavc61.19.100 pcm_s16le
frame=  172 fps=0.0 q=-0.0 size=N/A time=00:00:07.17 bitrate=N/A speed=13.7x    frame=  400 fps=388 q=-0.0 size=N/A time=00:00:16.68 bitrate=N/A speed=16.2x    frame=  665 fps=428 q=-0.0 size=N/A time=00:00:27.73 bitrate=N/A speed=17.9x    frame=  935 fps=451 q=-0.0 size=N/A time=00:00:38.99 bitrate=N/A speed=18.8x    frame= 1166 fps=451 q=-0.0 size=N/A time=00:00:48.63 bitrate=N/A speed=18.8x    frame= 1430 fps=461 q=-0.0 size=N/A time=00:00:59.64 bitrate=N/A speed=19.2x    frame= 1672 fps=463 q=-0.0 size=N/A time=00:01:09.73 bitrate=N/A speed=19.3x    frame= 1941 fps=470 q=-0.0 size=N/A time=00:01:20.95 bitrate=N/A speed=19.6x    frame= 2190 fps=472 q=-0.0 size=N/A time=00:01:31.34 bitrate=N/A speed=19.7x    frame= 2399 fps=465 q=-0.0 size=N/A time=00:01:40.05 bitrate=N/A speed=19.4x    frame= 2667 fps=469 q=-0.0 size=N/A time=00:01:51.23 bitrate=N/A speed=19.6x    frame= 2911 fps=469 q=-0.0 size=N/A time=00:02:01.41 bitrate=N/A speed=19.6x    frame= 3120 fps=463 q=-0.0 size=N/A time=00:02:10.13 bitrate=N/A speed=19.3x    frame= 3336 fps=461 q=-0.0 size=N/A time=00:02:19.13 bitrate=N/A speed=19.2x    frame= 3533 fps=455 q=-0.0 size=N/A time=00:02:27.35 bitrate=N/A speed=  19x    frame= 3717 fps=450 q=-0.0 size=N/A time=00:02:35.02 bitrate=N/A speed=18.8x    frame= 3893 fps=443 q=-0.0 size=N/A time=00:02:42.37 bitrate=N/A speed=18.5x    frame= 4047 fps=435 q=-0.0 size=N/A time=00:02:48.79 bitrate=N/A speed=18.1x    frame= 4215 fps=429 q=-0.0 size=N/A time=00:02:55.80 bitrate=N/A speed=17.9x    frame= 4390 fps=425 q=-0.0 size=N/A time=00:03:03.09 bitrate=N/A speed=17.7x    frame= 4596 fps=423 q=-0.0 size=N/A time=00:03:11.69 bitrate=N/A speed=17.7x    frame= 4774 fps=420 q=-0.0 size=N/A time=00:03:19.11 bitrate=N/A speed=17.5x    frame= 4971 fps=418 q=-0.0 size=N/A time=00:03:27.33 bitrate=N/A speed=17.4x    frame= 5221 fps=421 q=-0.0 size=N/A time=00:03:37.75 bitrate=N/A speed=17.6x    frame= 5456 fps=422 q=-0.0 size=N/A time=00:03:47.56 bitrate=N/A speed=17.6x    frame= 5715 fps=426 q=-0.0 size=N/A time=00:03:58.36 bitrate=N/A speed=17.8x    frame= 5981 fps=429 q=-0.0 size=N/A time=00:04:09.45 bitrate=N/A speed=17.9x    frame= 6237 fps=431 q=-0.0 size=N/A time=00:04:20.13 bitrate=N/A speed=  18x    frame= 6482 fps=433 q=-0.0 size=N/A time=00:04:30.35 bitrate=N/A speed=18.1x    frame= 6711 fps=433 q=-0.0 size=N/A time=00:04:39.90 bitrate=N/A speed=18.1x    frame= 6924 fps=433 q=-0.0 size=N/A time=00:04:48.78 bitrate=N/A speed=  18x    frame= 7144 fps=432 q=-0.0 size=N/A time=00:04:57.96 bitrate=N/A speed=  18x    frame= 7368 fps=433 q=-0.0 size=N/A time=00:05:07.30 bitrate=N/A speed=  18x    frame= 7551 fps=430 q=-0.0 size=N/A time=00:05:14.93 bitrate=N/A speed=17.9x    frame= 7786 fps=431 q=-0.0 size=N/A time=00:05:24.74 bitrate=N/A speed=  18x    frame= 8016 fps=431 q=-0.0 size=N/A time=00:05:34.33 bitrate=N/A speed=  18x    frame= 8281 fps=433 q=-0.0 size=N/A time=00:05:45.38 bitrate=N/A speed=18.1x    frame= 8533 fps=435 q=-0.0 size=N/A time=00:05:55.89 bitrate=N/A speed=18.1x    frame= 8802 fps=437 q=-0.0 size=N/A time=00:06:07.11 bitrate=N/A speed=18.2x    frame= 9063 fps=439 q=-0.0 size=N/A time=00:06:18.00 bitrate=N/A speed=18.3x    frame= 9337 fps=441 q=-0.0 size=N/A time=00:06:29.43 bitrate=N/A speed=18.4x    frame= 9587 fps=442 q=-0.0 size=N/A time=00:06:39.85 bitrate=N/A speed=18.4x    frame= 9822 fps=442 q=-0.0 size=N/A time=00:06:49.65 bitrate=N/A speed=18.5x    frame=10078 fps=444 q=-0.0 size=N/A time=00:07:00.33 bitrate=N/A speed=18.5x    frame=10285 fps=443 q=-0.0 size=N/A time=00:07:08.97 bitrate=N/A speed=18.5x    frame=10511 fps=443 q=-0.0 size=N/A time=00:07:18.39 bitrate=N/A speed=18.5x    frame=10759 fps=444 q=-0.0 size=N/A time=00:07:28.73 bitrate=N/A speed=18.5x    frame=11023 fps=445 q=-0.0 size=N/A time=00:07:39.75 bitrate=N/A speed=18.6x    frame=11269 fps=446 q=-0.0 size=N/A time=00:07:50.01 bitrate=N/A speed=18.6x    frame=11534 fps=447 q=-0.0 size=N/A time=00:08:01.06 bitrate=N/A speed=18.6x    frame=11788 fps=448 q=-0.0 size=N/A time=00:08:11.65 bitrate=N/A speed=18.7x    frame=12042 fps=449 q=-0.0 size=N/A time=00:08:22.25 bitrate=N/A speed=18.7x    frame=12312 fps=450 q=-0.0 size=N/A time=00:08:33.51 bitrate=N/A speed=18.8x    frame=12492 fps=448 q=-0.0 size=N/A time=00:08:41.02 bitrate=N/A speed=18.7x    frame=12718 fps=448 q=-0.0 size=N/A time=00:08:50.44 bitrate=N/A speed=18.7x    frame=12968 fps=449 q=-0.0 size=N/A time=00:09:00.87 bitrate=N/A speed=18.7x    frame=13229 fps=450 q=-0.0 size=N/A time=00:09:11.75 bitrate=N/A speed=18.8x    frame=13481 fps=450 q=-0.0 size=N/A time=00:09:22.27 bitrate=N/A speed=18.8x    frame=13720 fps=451 q=-0.0 size=N/A time=00:09:32.23 bitrate=N/A speed=18.8x    frame=13953 fps=451 q=-0.0 size=N/A time=00:09:41.95 bitrate=N/A speed=18.8x    frame=14209 fps=451 q=-0.0 size=N/A time=00:09:52.63 bitrate=N/A speed=18.8x    frame=14399 fps=450 q=-0.0 size=N/A time=00:10:00.55 bitrate=N/A speed=18.8x    frame=14644 fps=450 q=-0.0 size=N/A time=00:10:10.77 bitrate=N/A speed=18.8x    frame=14834 fps=449 q=-0.0 size=N/A time=00:10:18.70 bitrate=N/A speed=18.7x    frame=15064 fps=449 q=-0.0 size=N/A time=00:10:28.29 bitrate=N/A speed=18.7x    frame=15318 fps=450 q=-0.0 size=N/A time=00:10:38.88 bitrate=N/A speed=18.8x    frame=15544 fps=450 q=-0.0 size=N/A time=00:10:48.31 bitrate=N/A speed=18.8x    frame=15774 fps=450 q=-0.0 size=N/A time=00:10:57.90 bitrate=N/A speed=18.7x    frame=15974 fps=449 q=-0.0 size=N/A time=00:11:06.24 bitrate=N/A speed=18.7x    frame=16166 fps=448 q=-0.0 size=N/A time=00:11:14.25 bitrate=N/A speed=18.7x    frame=16401 fps=448 q=-0.0 size=N/A time=00:11:24.05 bitrate=N/A speed=18.7x    frame=16645 fps=448 q=-0.0 size=N/A time=00:11:34.23 bitrate=N/A speed=18.7x    frame=16865 fps=448 q=-0.0 size=N/A time=00:11:43.41 bitrate=N/A speed=18.7x    frame=17067 fps=447 q=-0.0 size=N/A time=00:11:51.83 bitrate=N/A speed=18.6x    frame=17335 fps=448 q=-0.0 size=N/A time=00:12:03.01 bitrate=N/A speed=18.7x    frame=17598 fps=449 q=-0.0 size=N/A time=00:12:13.98 bitrate=N/A speed=18.7x    frame=17825 fps=449 q=-0.0 size=N/A time=00:12:23.45 bitrate=N/A speed=18.7x    frame=18073 fps=449 q=-0.0 size=N/A time=00:12:33.79 bitrate=N/A speed=18.7x    frame=18269 fps=448 q=-0.0 size=N/A time=00:12:41.96 bitrate=N/A speed=18.7x    frame=18485 fps=448 q=-0.0 size=N/A time=00:12:50.97 bitrate=N/A speed=18.7x    frame=18695 fps=447 q=-0.0 size=N/A time=00:12:59.73 bitrate=N/A speed=18.6x    frame=18920 fps=447 q=-0.0 size=N/A time=00:13:09.12 bitrate=N/A speed=18.6x    frame=19177 fps=448 q=-0.0 size=N/A time=00:13:19.84 bitrate=N/A speed=18.7x    frame=19418 fps=448 q=-0.0 size=N/A time=00:13:29.89 bitrate=N/A speed=18.7x    frame=19679 fps=449 q=-0.0 size=N/A time=00:13:40.77 bitrate=N/A speed=18.7x    frame=19944 fps=449 q=-0.0 size=N/A time=00:13:51.83 bitrate=N/A speed=18.7x    frame=20178 fps=449 q=-0.0 size=N/A time=00:14:01.59 bitrate=N/A speed=18.7x    frame=20422 fps=450 q=-0.0 size=N/A time=00:14:11.76 bitrate=N/A speed=18.8x    frame=20626 fps=449 q=-0.0 size=N/A time=00:14:20.27 bitrate=N/A speed=18.7x    frame=20867 fps=449 q=-0.0 size=N/A time=00:14:30.32 bitrate=N/A speed=18.7x    frame=21085 fps=449 q=-0.0 size=N/A time=00:14:39.42 bitrate=N/A speed=18.7x    frame=21280 fps=448 q=-0.0 size=N/A time=00:14:47.55 bitrate=N/A speed=18.7x    frame=21468 fps=447 q=-0.0 size=N/A time=00:14:55.39 bitrate=N/A speed=18.7x    frame=21686 fps=447 q=-0.0 size=N/A time=00:15:04.48 bitrate=N/A speed=18.6x    frame=21908 fps=447 q=-0.0 size=N/A time=00:15:13.74 bitrate=N/A speed=18.6x    frame=22150 fps=447 q=-0.0 size=N/A time=00:15:23.83 bitrate=N/A speed=18.7x    frame=22355 fps=447 q=-0.0 size=N/A time=00:15:32.38 bitrate=N/A speed=18.6x    frame=22622 fps=447 q=-0.0 size=N/A time=00:15:43.52 bitrate=N/A speed=18.7x    frame=22887 fps=448 q=-0.0 size=N/A time=00:15:54.57 bitrate=N/A speed=18.7x    frame=23146 fps=449 q=-0.0 size=N/A time=00:16:05.38 bitrate=N/A speed=18.7x    frame=23390 fps=449 q=-0.0 size=N/A time=00:16:15.55 bitrate=N/A speed=18.7x    frame=23616 fps=449 q=-0.0 size=N/A time=00:16:24.98 bitrate=N/A speed=18.7x    frame=23820 fps=448 q=-0.0 size=N/A time=00:16:33.49 bitrate=N/A speed=18.7x    frame=23980 fps=447 q=-0.0 size=N/A time=00:16:40.16 bitrate=N/A speed=18.6x    frame=24166 fps=446 q=-0.0 size=N/A time=00:16:47.92 bitrate=N/A speed=18.6x    frame=24371 fps=446 q=-0.0 size=N/A time=00:16:56.47 bitrate=N/A speed=18.6x    frame=24538 fps=444 q=-0.0 size=N/A time=00:17:03.43 bitrate=N/A speed=18.5x    frame=24704 fps=443 q=-0.0 size=N/A time=00:17:10.36 bitrate=N/A speed=18.5x    frame=24908 fps=443 q=-0.0 size=N/A time=00:17:18.87 bitrate=N/A speed=18.5x    frame=25127 fps=443 q=-0.0 size=N/A time=00:17:28.00 bitrate=N/A speed=18.5x    frame=25361 fps=443 q=-0.0 size=N/A time=00:17:37.76 bitrate=N/A speed=18.5x    frame=25583 fps=443 q=-0.0 size=N/A time=00:17:47.02 bitrate=N/A speed=18.5x    frame=25831 fps=443 q=-0.0 size=N/A time=00:17:57.36 bitrate=N/A speed=18.5x    frame=26033 fps=443 q=-0.0 size=N/A time=00:18:05.79 bitrate=N/A speed=18.5x    frame=26235 fps=442 q=-0.0 size=N/A time=00:18:14.21 bitrate=N/A speed=18.4x    frame=26469 fps=442 q=-0.0 size=N/A time=00:18:23.97 bitrate=N/A speed=18.4x    frame=26706 fps=442 q=-0.0 size=N/A time=00:18:33.86 bitrate=N/A speed=18.5x    frame=26907 fps=442 q=-0.0 size=N/A time=00:18:42.24 bitrate=N/A speed=18.4x    frame=27132 fps=442 q=-0.0 size=N/A time=00:18:51.63 bitrate=N/A speed=18.4x    frame=27397 fps=442 q=-0.0 size=N/A time=00:19:02.68 bitrate=N/A speed=18.5x    frame=27587 fps=442 q=-0.0 size=N/A time=00:19:10.60 bitrate=N/A speed=18.4x    frame=27774 fps=441 q=-0.0 size=N/A time=00:19:18.40 bitrate=N/A speed=18.4x    frame=27988 fps=441 q=-0.0 size=N/A time=00:19:27.33 bitrate=N/A speed=18.4x    frame=28231 fps=441 q=-0.0 size=N/A time=00:19:37.46 bitrate=N/A speed=18.4x    frame=28463 fps=441 q=-0.0 size=N/A time=00:19:47.14 bitrate=N/A speed=18.4x    frame=28690 fps=441 q=-0.0 size=N/A time=00:19:56.61 bitrate=N/A speed=18.4x    frame=28928 fps=441 q=-0.0 size=N/A time=00:20:06.53 bitrate=N/A speed=18.4x    frame=29197 fps=442 q=-0.0 size=N/A time=00:20:17.75 bitrate=N/A speed=18.4x    frame=29459 fps=442 q=-0.0 size=N/A time=00:20:28.68 bitrate=N/A speed=18.5x    frame=29651 fps=442 q=-0.0 size=N/A time=00:20:36.69 bitrate=N/A speed=18.4x    frame=29895 fps=442 q=-0.0 size=N/A time=00:20:46.87 bitrate=N/A speed=18.4x    frame=30094 fps=442 q=-0.0 size=N/A time=00:20:55.17 bitrate=N/A speed=18.4x    frame=30312 fps=442 q=-0.0 size=N/A time=00:21:04.26 bitrate=N/A speed=18.4x    frame=30559 fps=442 q=-0.0 size=N/A time=00:21:14.56 bitrate=N/A speed=18.4x    frame=30826 fps=443 q=-0.0 size=N/A time=00:21:25.70 bitrate=N/A speed=18.5x    frame=31098 fps=443 q=-0.0 size=N/A time=00:21:37.04 bitrate=N/A speed=18.5x    frame=31356 fps=444 q=-0.0 size=N/A time=00:21:47.80 bitrate=N/A speed=18.5x    frame=31619 fps=444 q=-0.0 size=N/A time=00:21:58.77 bitrate=N/A speed=18.5x    frame=31874 fps=444 q=-0.0 size=N/A time=00:22:09.41 bitrate=N/A speed=18.5x    frame=32118 fps=445 q=-0.0 size=N/A time=00:22:19.58 bitrate=N/A speed=18.5x    frame=32329 fps=444 q=-0.0 size=N/A time=00:22:28.38 bitrate=N/A speed=18.5x    frame=32554 fps=444 q=-0.0 size=N/A time=00:22:37.77 bitrate=N/A speed=18.5x    frame=32767 fps=444 q=-0.0 size=N/A time=00:22:46.65 bitrate=N/A speed=18.5x    frame=32988 fps=444 q=-0.0 size=N/A time=00:22:55.87 bitrate=N/A speed=18.5x    frame=33198 fps=444 q=-0.0 size=N/A time=00:23:04.63 bitrate=N/A speed=18.5x    frame=33412 fps=443 q=-0.0 size=N/A time=00:23:13.55 bitrate=N/A speed=18.5x    frame=33623 fps=443 q=-0.0 size=N/A time=00:23:22.35 bitrate=N/A speed=18.5x    frame=33798 fps=442 q=-0.0 size=N/A time=00:23:29.65 bitrate=N/A speed=18.5x    frame=33976 fps=442 q=-0.0 size=N/A time=00:23:37.08 bitrate=N/A speed=18.4x    frame=34140 fps=441 q=-0.0 size=N/A time=00:23:43.92 bitrate=N/A speed=18.4x    frame=34334 fps=441 q=-0.0 size=N/A time=00:23:52.01 bitrate=N/A speed=18.4x    frame=34495 fps=440 q=-0.0 size=N/A time=00:23:58.72 bitrate=N/A speed=18.3x    frame=34698 fps=439 q=-0.0 size=N/A time=00:24:07.19 bitrate=N/A speed=18.3x    frame=34916 fps=439 q=-0.0 size=N/A time=00:24:16.28 bitrate=N/A speed=18.3x    [Parsed_ssim_10 @ 00000198d51bf6c0] SSIM Y:0.993950 (22.182265) U:0.993187 (21.666505) V:0.993429 (21.823763) All:0.993736 (22.031359)
[out#0/null @ 00000198c7daeec0] video:15056KiB audio:274044KiB subtitle:0KiB other streams:0KiB global headers:0KiB muxing overhead: unknown
frame=35040 fps=439 q=-0.0 Lsize=N/A time=00:24:21.46 bitrate=N/A speed=18.3x    
